<svg xmlns="http://www.w3.org/2000/svg" width="224.88" viewBox="0 0 224.88 75" height="75" version="1.0"><defs><clipPath id="a"><path d="M 2.773438 3.949219 L 60.492188 3.949219 L 60.492188 71.414062 L 2.773438 71.414062 Z M 2.773438 3.949219"/></clipPath></defs><g clip-path="url(#a)"><path fill="#2A7BE2" d="M 31.632812 61.660156 L 11.117188 49.671875 L 11.117188 25.699219 L 31.632812 13.710938 L 52.152344 25.699219 L 60.496094 20.824219 L 31.632812 3.960938 L 2.773438 20.824219 L 2.773438 54.546875 L 31.632812 71.410156 L 60.496094 54.546875 L 52.152344 49.671875 L 31.632812 61.660156"/></g><path fill="#2F89FC" d="M 40.015625 23.1875 L 20.089844 23.1875 L 20.089844 44.46875 L 26.710938 34.746094 L 26.710938 30.265625 L 35.976562 30.265625 L 40.546875 38.277344 L 35.976562 46.289062 L 25.050781 46.289062 L 20.761719 53.367188 L 40.015625 53.367188 L 48.625 38.277344 L 40.015625 23.1875"/><g fill="#00528A"><g><g><path d="M 1.863281 0 L 3.351562 0 L 4.535156 -4.507812 L 4.609375 -4.507812 L 5.792969 0 L 7.28125 0 L 8.945312 -5.859375 L 7.902344 -5.859375 L 6.527344 -0.960938 L 6.453125 -0.960938 L 5.128906 -5.859375 L 4.011719 -5.859375 L 2.6875 -0.960938 L 2.613281 -0.960938 L 1.242188 -5.859375 L 0.191406 -5.859375 Z M 1.863281 0" transform="translate(71.203 60.779)"/></g></g></g><g fill="#00528A"><g><g><path d="M 0.597656 0 L 4.929688 0 L 4.929688 -0.84375 L 1.605469 -0.84375 L 1.605469 -2.648438 L 4.609375 -2.648438 L 4.609375 -3.359375 L 1.605469 -3.359375 L 1.605469 -5.023438 L 4.847656 -5.023438 L 4.847656 -5.859375 L 0.597656 -5.859375 Z M 0.597656 0" transform="translate(81.578 60.779)"/></g></g></g><g fill="#00528A"><g><g><path d="M 0.597656 0 L 1.636719 0 L 1.636719 -2.242188 L 2.597656 -2.242188 L 4.410156 0 L 5.59375 0 L 3.625 -2.316406 L 3.804688 -2.324219 C 4.832031 -2.40625 5.527344 -3.070312 5.527344 -4.027344 C 5.527344 -5.144531 4.65625 -5.859375 3.308594 -5.859375 L 0.597656 -5.859375 Z M 1.636719 -2.953125 L 1.636719 -5.078125 L 3.144531 -5.078125 C 3.945312 -5.078125 4.476562 -4.691406 4.476562 -4.019531 C 4.476562 -3.367188 3.9375 -2.953125 3.144531 -2.953125 Z M 1.636719 -2.953125" transform="translate(91.35 60.779)"/></g></g></g><g fill="#00528A"><g><g><path d="M 0.597656 0 L 4.929688 0 L 4.929688 -0.84375 L 1.605469 -0.84375 L 1.605469 -2.648438 L 4.609375 -2.648438 L 4.609375 -3.359375 L 1.605469 -3.359375 L 1.605469 -5.023438 L 4.847656 -5.023438 L 4.847656 -5.859375 L 0.597656 -5.859375 Z M 0.597656 0" transform="translate(98.49 60.779)"/></g></g></g><g fill="#00528A"><g><g><path d="M 0.125 0 L 1.199219 0 L 1.636719 -1.214844 L 4.246094 -1.214844 L 4.683594 0 L 5.765625 0 L 3.714844 -5.859375 L 2.175781 -5.859375 Z M 1.863281 -1.992188 L 2.902344 -4.957031 L 2.980469 -4.957031 L 4.019531 -1.992188 Z M 1.863281 -1.992188" transform="translate(104.985 60.779)"/></g></g></g><g fill="#00528A"><g><g><path d="M 0.597656 0 L 4.550781 0 L 4.550781 -0.902344 L 1.636719 -0.902344 L 1.636719 -5.859375 L 0.597656 -5.859375 Z M 0.597656 0" transform="translate(112.108 60.779)"/></g></g></g><g fill="#00528A"><g><g><path d="M 0.597656 0 L 1.636719 0 L 1.636719 -5.859375 L 0.597656 -5.859375 Z M 0.597656 0" transform="translate(118.123 60.779)"/></g></g></g><g fill="#00528A"><g><g><path d="M 0.273438 0 L 4.949219 0 L 4.949219 -0.84375 L 1.703125 -0.84375 L 1.703125 -0.910156 L 4.863281 -5.296875 L 4.863281 -5.859375 L 0.324219 -5.859375 L 0.324219 -5.023438 L 3.476562 -5.023438 L 3.476562 -4.957031 L 0.273438 -0.570312 Z M 0.273438 0" transform="translate(121.598 60.779)"/></g></g></g><g fill="#00528A"><g><g><path d="M 0.597656 0 L 4.929688 0 L 4.929688 -0.84375 L 1.605469 -0.84375 L 1.605469 -2.648438 L 4.609375 -2.648438 L 4.609375 -3.359375 L 1.605469 -3.359375 L 1.605469 -5.023438 L 4.847656 -5.023438 L 4.847656 -5.859375 L 0.597656 -5.859375 Z M 0.597656 0" transform="translate(128.06 60.779)"/></g></g></g><g fill="#00528A"><g><g><path d="M 2.152344 0 L 3.183594 0 L 3.183594 -2.199219 L 5.1875 -5.859375 L 4.078125 -5.859375 L 2.695312 -3.160156 L 2.632812 -3.160156 L 1.214844 -5.859375 L 0.125 -5.859375 L 2.152344 -2.199219 Z M 2.152344 0" transform="translate(137.831 60.779)"/></g></g></g><g fill="#00528A"><g><g><path d="M 3.558594 0.15625 C 5.445312 0.15625 6.757812 -1.082031 6.757812 -2.929688 C 6.757812 -4.773438 5.445312 -6.023438 3.558594 -6.023438 C 1.671875 -6.023438 0.355469 -4.773438 0.355469 -2.929688 C 0.355469 -1.082031 1.671875 0.15625 3.558594 0.15625 Z M 3.558594 -0.710938 C 2.300781 -0.710938 1.40625 -1.628906 1.40625 -2.929688 C 1.40625 -4.234375 2.300781 -5.144531 3.558594 -5.144531 C 4.824219 -5.144531 5.71875 -4.234375 5.71875 -2.929688 C 5.71875 -1.621094 4.824219 -0.710938 3.558594 -0.710938 Z M 3.558594 -0.710938" transform="translate(144.376 60.779)"/></g></g></g><g fill="#00528A"><g><g><path d="M 3.035156 0.15625 C 4.535156 0.15625 5.542969 -0.835938 5.542969 -2.382812 L 5.542969 -5.859375 L 4.5 -5.859375 L 4.5 -2.414062 C 4.5 -1.382812 3.929688 -0.710938 3.035156 -0.710938 C 2.152344 -0.710938 1.582031 -1.375 1.582031 -2.414062 L 1.582031 -5.859375 L 0.53125 -5.859375 L 0.53125 -2.382812 C 0.53125 -0.835938 1.539062 0.15625 3.035156 0.15625 Z M 3.035156 0.15625" transform="translate(152.74 60.779)"/></g></g></g><g fill="#00528A"><g><g><path d="M 0.597656 0 L 1.636719 0 L 1.636719 -2.242188 L 2.597656 -2.242188 L 4.410156 0 L 5.59375 0 L 3.625 -2.316406 L 3.804688 -2.324219 C 4.832031 -2.40625 5.527344 -3.070312 5.527344 -4.027344 C 5.527344 -5.144531 4.65625 -5.859375 3.308594 -5.859375 L 0.597656 -5.859375 Z M 1.636719 -2.953125 L 1.636719 -5.078125 L 3.144531 -5.078125 C 3.945312 -5.078125 4.476562 -4.691406 4.476562 -4.019531 C 4.476562 -3.367188 3.9375 -2.953125 3.144531 -2.953125 Z M 1.636719 -2.953125" transform="translate(160.055 60.779)"/></g></g></g><g fill="#00528A"><g><g><path d="M 0.597656 0 L 1.636719 0 L 1.636719 -5.859375 L 0.597656 -5.859375 Z M 0.597656 0" transform="translate(170.471 60.779)"/></g></g></g><g fill="#00528A"><g><g><path d="M 0.597656 0 L 2.695312 0 C 4.632812 0 5.925781 -1.117188 5.925781 -2.929688 C 5.925781 -4.742188 4.625 -5.859375 2.695312 -5.859375 L 0.597656 -5.859375 Z M 1.605469 -0.8125 L 1.605469 -5.054688 L 2.695312 -5.054688 C 3.988281 -5.054688 4.882812 -4.253906 4.882812 -2.929688 C 4.882812 -1.605469 4.003906 -0.8125 2.695312 -0.8125 Z M 1.605469 -0.8125" transform="translate(173.946 60.779)"/></g></g></g><g fill="#00528A"><g><g><path d="M 0.597656 0 L 4.929688 0 L 4.929688 -0.84375 L 1.605469 -0.84375 L 1.605469 -2.648438 L 4.609375 -2.648438 L 4.609375 -3.359375 L 1.605469 -3.359375 L 1.605469 -5.023438 L 4.847656 -5.023438 L 4.847656 -5.859375 L 0.597656 -5.859375 Z M 0.597656 0" transform="translate(181.475 60.779)"/></g></g></g><g fill="#00528A"><g><g><path d="M 0.125 0 L 1.199219 0 L 1.636719 -1.214844 L 4.246094 -1.214844 L 4.683594 0 L 5.765625 0 L 3.714844 -5.859375 L 2.175781 -5.859375 Z M 1.863281 -1.992188 L 2.902344 -4.957031 L 2.980469 -4.957031 L 4.019531 -1.992188 Z M 1.863281 -1.992188" transform="translate(187.97 60.779)"/></g></g></g><g fill="#00528A"><g><g><path d="M 2.921875 0.15625 C 4.433594 0.15625 5.425781 -0.546875 5.425781 -1.644531 C 5.425781 -2.96875 4.152344 -3.167969 3.109375 -3.324219 C 2.285156 -3.449219 1.53125 -3.574219 1.53125 -4.269531 C 1.53125 -4.839844 2.035156 -5.246094 2.871094 -5.246094 C 3.738281 -5.246094 4.300781 -4.789062 4.300781 -4.039062 L 5.261719 -4.039062 C 5.253906 -5.230469 4.300781 -6.023438 2.828125 -6.023438 C 1.398438 -6.023438 0.480469 -5.296875 0.480469 -4.203125 C 0.480469 -2.855469 1.796875 -2.6875 2.828125 -2.539062 C 3.640625 -2.414062 4.386719 -2.300781 4.386719 -1.589844 C 4.386719 -1 3.824219 -0.621094 2.960938 -0.621094 C 1.992188 -0.621094 1.398438 -1.109375 1.398438 -1.902344 L 0.414062 -1.894531 C 0.414062 -0.660156 1.40625 0.15625 2.921875 0.15625 Z M 2.921875 0.15625" transform="translate(195.094 60.779)"/></g></g></g><g fill="#2F89FC"><g><g><path d="M 8.03125 0.40625 C 11.132812 0.40625 13.828125 -1.269531 14.539062 -3.761719 L 12 -4.167969 C 11.464844 -2.71875 9.914062 -1.679688 8.160156 -1.679688 C 5.769531 -1.679688 4.066406 -3.277344 3.863281 -5.667969 L 14.949219 -5.667969 L 14.972656 -6.457031 C 14.972656 -10.550781 12.175781 -13.320312 8.058594 -13.320312 C 3.863281 -13.320312 0.914062 -10.574219 0.914062 -6.480469 C 0.914062 -2.363281 3.839844 0.40625 8.03125 0.40625 Z M 3.839844 -7.347656 C 4.066406 -9.660156 5.695312 -11.261719 8.007812 -11.261719 C 10.246094 -11.261719 11.898438 -9.582031 12.050781 -7.347656 Z M 3.839844 -7.347656" transform="translate(50.36 45.8)"/></g></g></g><g fill="#2F89FC"><g><g><path d="M 5.261719 0 L 9.53125 0 L 14.386719 -12.914062 L 11.285156 -12.914062 L 7.5 -2.414062 L 7.296875 -2.414062 L 3.507812 -12.914062 L 0.40625 -12.914062 Z M 5.261719 0" transform="translate(65.295 45.8)"/></g></g></g><g fill="#2F89FC"><g><g><path d="M 1.652344 0 L 4.550781 0 L 4.550781 -18.761719 L 1.652344 -18.761719 Z M 1.652344 0" transform="translate(79.19 45.8)"/></g></g></g><g fill="#2F89FC"><g><g><path d="M 7.90625 0.40625 C 12.101562 0.40625 14.949219 -2.3125 14.949219 -6.457031 C 14.949219 -10.601562 12.101562 -13.320312 7.90625 -13.320312 C 3.710938 -13.320312 0.890625 -10.625 0.890625 -6.457031 C 0.890625 -2.3125 3.738281 0.40625 7.90625 0.40625 Z M 7.90625 -2.058594 C 5.492188 -2.058594 3.761719 -3.890625 3.761719 -6.457031 C 3.761719 -9.023438 5.492188 -10.855469 7.90625 -10.855469 C 10.347656 -10.855469 12.074219 -9.023438 12.074219 -6.457031 C 12.074219 -3.890625 10.347656 -2.058594 7.90625 -2.058594 Z M 7.90625 -2.058594" transform="translate(84.472 45.8)"/></g></g></g><g fill="#2F89FC"><g><g><path d="M 1.679688 5.847656 L 4.550781 5.847656 L 4.550781 -2.363281 L 4.777344 -2.363281 C 5.667969 -0.636719 7.296875 0.40625 9.480469 0.40625 C 13.089844 0.40625 15.632812 -2.363281 15.632812 -6.457031 C 15.632812 -10.574219 13.117188 -13.320312 9.480469 -13.320312 C 7.269531 -13.320312 5.667969 -12.277344 4.777344 -10.550781 L 4.550781 -10.550781 L 4.550781 -12.914062 L 1.679688 -12.914062 Z M 8.59375 -2.058594 C 6.203125 -2.058594 4.449219 -3.914062 4.449219 -6.457031 C 4.449219 -9 6.203125 -10.855469 8.59375 -10.855469 C 11.007812 -10.855469 12.734375 -9 12.734375 -6.457031 C 12.734375 -3.914062 11.007812 -2.058594 8.59375 -2.058594 Z M 8.59375 -2.058594" transform="translate(99.356 45.8)"/></g></g></g><g fill="#2F89FC"><g><g><path d="M 8.03125 0.40625 C 11.132812 0.40625 13.828125 -1.269531 14.539062 -3.761719 L 12 -4.167969 C 11.464844 -2.71875 9.914062 -1.679688 8.160156 -1.679688 C 5.769531 -1.679688 4.066406 -3.277344 3.863281 -5.667969 L 14.949219 -5.667969 L 14.972656 -6.457031 C 14.972656 -10.550781 12.175781 -13.320312 8.058594 -13.320312 C 3.863281 -13.320312 0.914062 -10.574219 0.914062 -6.480469 C 0.914062 -2.363281 3.839844 0.40625 8.03125 0.40625 Z M 3.839844 -7.347656 C 4.066406 -9.660156 5.695312 -11.261719 8.007812 -11.261719 C 10.246094 -11.261719 11.898438 -9.582031 12.050781 -7.347656 Z M 3.839844 -7.347656" transform="translate(114.952 45.8)"/></g></g></g><g fill="#2F89FC"><g><g><path d="M 1.679688 0 L 4.550781 0 L 4.550781 -6.789062 C 4.550781 -9.125 5.746094 -10.675781 7.574219 -10.675781 C 8.210938 -10.675781 9 -10.5 9.710938 -10.144531 L 9.710938 -12.8125 C 9.203125 -13.039062 8.59375 -13.167969 8.007812 -13.167969 C 6.457031 -13.167969 5.363281 -12.277344 4.753906 -10.804688 L 4.550781 -10.804688 L 4.550781 -12.914062 L 1.679688 -12.914062 Z M 1.679688 0" transform="translate(129.888 45.8)"/></g></g></g><g fill="#2F89FC"><g><g><path d="M 6.839844 0.457031 C 10.320312 0.457031 12.683594 -1.144531 12.683594 -3.738281 C 12.683594 -6.8125 9.835938 -7.269531 7.421875 -7.601562 C 5.515625 -7.855469 3.761719 -8.03125 3.761719 -9.660156 C 3.761719 -10.753906 4.90625 -11.515625 6.53125 -11.515625 C 8.390625 -11.515625 9.632812 -10.550781 9.632812 -9.074219 L 12.226562 -9.074219 C 12.226562 -11.695312 9.863281 -13.371094 6.53125 -13.371094 C 3.277344 -13.371094 1.09375 -11.796875 1.09375 -9.378906 C 1.09375 -6.152344 4.042969 -5.820312 6.355469 -5.542969 C 8.160156 -5.3125 9.8125 -5.160156 9.8125 -3.40625 C 9.8125 -2.1875 8.566406 -1.398438 6.863281 -1.398438 C 4.804688 -1.398438 3.40625 -2.515625 3.382812 -4.117188 L 0.890625 -4.117188 C 0.890625 -1.371094 3.253906 0.457031 6.839844 0.457031 Z M 6.839844 0.457031" transform="translate(139.26 45.8)"/></g></g></g><g fill="#2F89FC"><g><g><path d="M 10.726562 0.484375 C 15.378906 0.484375 19.089844 -2.339844 19.675781 -6.226562 L 16.675781 -6.609375 C 16.140625 -4.117188 13.675781 -2.1875 10.828125 -2.1875 C 6.992188 -2.1875 4.320312 -4.984375 4.320312 -9 C 4.320312 -13.039062 6.964844 -15.8125 10.828125 -15.8125 C 13.652344 -15.8125 16.117188 -13.855469 16.652344 -11.285156 L 19.648438 -11.644531 C 19.015625 -15.609375 15.304688 -18.507812 10.726562 -18.507812 C 5.136719 -18.507812 1.117188 -14.589844 1.117188 -9 C 1.117188 -3.433594 5.136719 0.484375 10.726562 0.484375 Z M 10.726562 0.484375" transform="translate(157.268 45.8)"/></g></g></g><g fill="#2F89FC"><g><g><path d="M 7.90625 0.40625 C 12.101562 0.40625 14.949219 -2.3125 14.949219 -6.457031 C 14.949219 -10.601562 12.101562 -13.320312 7.90625 -13.320312 C 3.710938 -13.320312 0.890625 -10.625 0.890625 -6.457031 C 0.890625 -2.3125 3.738281 0.40625 7.90625 0.40625 Z M 7.90625 -2.058594 C 5.492188 -2.058594 3.761719 -3.890625 3.761719 -6.457031 C 3.761719 -9.023438 5.492188 -10.855469 7.90625 -10.855469 C 10.347656 -10.855469 12.074219 -9.023438 12.074219 -6.457031 C 12.074219 -3.890625 10.347656 -2.058594 7.90625 -2.058594 Z M 7.90625 -2.058594" transform="translate(177.131 45.8)"/></g></g></g><g fill="#2F89FC"><g><g><path d="M 5.261719 0 L 9.53125 0 L 14.386719 -12.914062 L 11.285156 -12.914062 L 7.5 -2.414062 L 7.296875 -2.414062 L 3.507812 -12.914062 L 0.40625 -12.914062 Z M 5.261719 0" transform="translate(192.016 45.8)"/></g></g></g><g fill="#2F89FC"><g><g><path d="M 8.03125 0.40625 C 11.132812 0.40625 13.828125 -1.269531 14.539062 -3.761719 L 12 -4.167969 C 11.464844 -2.71875 9.914062 -1.679688 8.160156 -1.679688 C 5.769531 -1.679688 4.066406 -3.277344 3.863281 -5.667969 L 14.949219 -5.667969 L 14.972656 -6.457031 C 14.972656 -10.550781 12.175781 -13.320312 8.058594 -13.320312 C 3.863281 -13.320312 0.914062 -10.574219 0.914062 -6.480469 C 0.914062 -2.363281 3.839844 0.40625 8.03125 0.40625 Z M 3.839844 -7.347656 C 4.066406 -9.660156 5.695312 -11.261719 8.007812 -11.261719 C 10.246094 -11.261719 11.898438 -9.582031 12.050781 -7.347656 Z M 3.839844 -7.347656" transform="translate(205.91 45.8)"/></g></g></g></svg>