<?xml version="1.0" encoding="utf-8"?>
<svg viewBox="128.424 190.369 218.109 67.449" width="218.109" height="67.449" xmlns="http://www.w3.org/2000/svg">
  <defs>
    <clipPath id="a">
      <path d="M 2.773438 3.949219 L 60.492188 3.949219 L 60.492188 71.414062 L 2.773438 71.414062 Z M 2.773438 3.949219"/>
    </clipPath>
  </defs>
  <g clip-path="url(#a)" transform="matrix(1, 0, 0, 1, 125.650375, 186.407715)">
    <path fill="#2A7BE2" d="M 31.632812 61.660156 L 11.117188 49.671875 L 11.117188 25.699219 L 31.632812 13.710938 L 52.152344 25.699219 L 60.496094 20.824219 L 31.632812 3.960938 L 2.773438 20.824219 L 2.773438 54.546875 L 31.632812 71.410156 L 60.496094 54.546875 L 52.152344 49.671875 L 31.632812 61.660156"/>
  </g>
  <path fill="#2F89FC" d="M 165.666 209.595 L 145.74 209.595 L 145.74 230.876 L 152.361 221.154 L 152.361 216.673 L 161.627 216.673 L 166.197 224.685 L 161.627 232.697 L 150.701 232.697 L 146.412 239.775 L 165.666 239.775 L 174.275 224.685 L 165.666 209.595"/>
  <g fill="#2F89FC" transform="matrix(1, 0, 0, 1, 125.650375, 186.407715)">
    <g>
      <g>
        <path d="M 8.03125 0.40625 C 11.132812 0.40625 13.828125 -1.269531 14.539062 -3.761719 L 12 -4.167969 C 11.464844 -2.71875 9.914062 -1.679688 8.160156 -1.679688 C 5.769531 -1.679688 4.066406 -3.277344 3.863281 -5.667969 L 14.949219 -5.667969 L 14.972656 -6.457031 C 14.972656 -10.550781 12.175781 -13.320312 8.058594 -13.320312 C 3.863281 -13.320312 0.914062 -10.574219 0.914062 -6.480469 C 0.914062 -2.363281 3.839844 0.40625 8.03125 0.40625 Z M 3.839844 -7.347656 C 4.066406 -9.660156 5.695312 -11.261719 8.007812 -11.261719 C 10.246094 -11.261719 11.898438 -9.582031 12.050781 -7.347656 Z M 3.839844 -7.347656" transform="translate(50.36 45.8)"/>
      </g>
    </g>
  </g>
  <g fill="#2F89FC" transform="matrix(1, 0, 0, 1, 125.650375, 186.407715)">
    <g>
      <g>
        <path d="M 5.261719 0 L 9.53125 0 L 14.386719 -12.914062 L 11.285156 -12.914062 L 7.5 -2.414062 L 7.296875 -2.414062 L 3.507812 -12.914062 L 0.40625 -12.914062 Z M 5.261719 0" transform="translate(65.295 45.8)"/>
      </g>
    </g>
  </g>
  <g fill="#2F89FC" transform="matrix(1, 0, 0, 1, 125.650375, 186.407715)">
    <g>
      <g>
        <path d="M 1.652344 0 L 4.550781 0 L 4.550781 -18.761719 L 1.652344 -18.761719 Z M 1.652344 0" transform="translate(79.19 45.8)"/>
      </g>
    </g>
  </g>
  <g fill="#2F89FC" transform="matrix(1, 0, 0, 1, 125.650375, 186.407715)">
    <g>
      <g>
        <path d="M 7.90625 0.40625 C 12.101562 0.40625 14.949219 -2.3125 14.949219 -6.457031 C 14.949219 -10.601562 12.101562 -13.320312 7.90625 -13.320312 C 3.710938 -13.320312 0.890625 -10.625 0.890625 -6.457031 C 0.890625 -2.3125 3.738281 0.40625 7.90625 0.40625 Z M 7.90625 -2.058594 C 5.492188 -2.058594 3.761719 -3.890625 3.761719 -6.457031 C 3.761719 -9.023438 5.492188 -10.855469 7.90625 -10.855469 C 10.347656 -10.855469 12.074219 -9.023438 12.074219 -6.457031 C 12.074219 -3.890625 10.347656 -2.058594 7.90625 -2.058594 Z M 7.90625 -2.058594" transform="translate(84.472 45.8)"/>
      </g>
    </g>
  </g>
  <g fill="#2F89FC" transform="matrix(1, 0, 0, 1, 125.650375, 186.407715)">
    <g>
      <g>
        <path d="M 1.679688 5.847656 L 4.550781 5.847656 L 4.550781 -2.363281 L 4.777344 -2.363281 C 5.667969 -0.636719 7.296875 0.40625 9.480469 0.40625 C 13.089844 0.40625 15.632812 -2.363281 15.632812 -6.457031 C 15.632812 -10.574219 13.117188 -13.320312 9.480469 -13.320312 C 7.269531 -13.320312 5.667969 -12.277344 4.777344 -10.550781 L 4.550781 -10.550781 L 4.550781 -12.914062 L 1.679688 -12.914062 Z M 8.59375 -2.058594 C 6.203125 -2.058594 4.449219 -3.914062 4.449219 -6.457031 C 4.449219 -9 6.203125 -10.855469 8.59375 -10.855469 C 11.007812 -10.855469 12.734375 -9 12.734375 -6.457031 C 12.734375 -3.914062 11.007812 -2.058594 8.59375 -2.058594 Z M 8.59375 -2.058594" transform="translate(99.356 45.8)"/>
      </g>
    </g>
  </g>
  <g fill="#2F89FC" transform="matrix(1, 0, 0, 1, 125.650375, 186.407715)">
    <g>
      <g>
        <path d="M 8.03125 0.40625 C 11.132812 0.40625 13.828125 -1.269531 14.539062 -3.761719 L 12 -4.167969 C 11.464844 -2.71875 9.914062 -1.679688 8.160156 -1.679688 C 5.769531 -1.679688 4.066406 -3.277344 3.863281 -5.667969 L 14.949219 -5.667969 L 14.972656 -6.457031 C 14.972656 -10.550781 12.175781 -13.320312 8.058594 -13.320312 C 3.863281 -13.320312 0.914062 -10.574219 0.914062 -6.480469 C 0.914062 -2.363281 3.839844 0.40625 8.03125 0.40625 Z M 3.839844 -7.347656 C 4.066406 -9.660156 5.695312 -11.261719 8.007812 -11.261719 C 10.246094 -11.261719 11.898438 -9.582031 12.050781 -7.347656 Z M 3.839844 -7.347656" transform="translate(114.952 45.8)"/>
      </g>
    </g>
  </g>
  <g fill="#2F89FC" transform="matrix(1, 0, 0, 1, 125.650375, 186.407715)">
    <g>
      <g>
        <path d="M 1.679688 0 L 4.550781 0 L 4.550781 -6.789062 C 4.550781 -9.125 5.746094 -10.675781 7.574219 -10.675781 C 8.210938 -10.675781 9 -10.5 9.710938 -10.144531 L 9.710938 -12.8125 C 9.203125 -13.039062 8.59375 -13.167969 8.007812 -13.167969 C 6.457031 -13.167969 5.363281 -12.277344 4.753906 -10.804688 L 4.550781 -10.804688 L 4.550781 -12.914062 L 1.679688 -12.914062 Z M 1.679688 0" transform="translate(129.888 45.8)"/>
      </g>
    </g>
  </g>
  <g fill="#2F89FC" transform="matrix(1, 0, 0, 1, 125.650375, 186.407715)">
    <g>
      <g>
        <path d="M 6.839844 0.457031 C 10.320312 0.457031 12.683594 -1.144531 12.683594 -3.738281 C 12.683594 -6.8125 9.835938 -7.269531 7.421875 -7.601562 C 5.515625 -7.855469 3.761719 -8.03125 3.761719 -9.660156 C 3.761719 -10.753906 4.90625 -11.515625 6.53125 -11.515625 C 8.390625 -11.515625 9.632812 -10.550781 9.632812 -9.074219 L 12.226562 -9.074219 C 12.226562 -11.695312 9.863281 -13.371094 6.53125 -13.371094 C 3.277344 -13.371094 1.09375 -11.796875 1.09375 -9.378906 C 1.09375 -6.152344 4.042969 -5.820312 6.355469 -5.542969 C 8.160156 -5.3125 9.8125 -5.160156 9.8125 -3.40625 C 9.8125 -2.1875 8.566406 -1.398438 6.863281 -1.398438 C 4.804688 -1.398438 3.40625 -2.515625 3.382812 -4.117188 L 0.890625 -4.117188 C 0.890625 -1.371094 3.253906 0.457031 6.839844 0.457031 Z M 6.839844 0.457031" transform="translate(139.26 45.8)"/>
      </g>
    </g>
  </g>
  <g fill="#2F89FC" transform="matrix(1, 0, 0, 1, 125.650375, 186.407715)">
    <g>
      <g>
        <path d="M 10.726562 0.484375 C 15.378906 0.484375 19.089844 -2.339844 19.675781 -6.226562 L 16.675781 -6.609375 C 16.140625 -4.117188 13.675781 -2.1875 10.828125 -2.1875 C 6.992188 -2.1875 4.320312 -4.984375 4.320312 -9 C 4.320312 -13.039062 6.964844 -15.8125 10.828125 -15.8125 C 13.652344 -15.8125 16.117188 -13.855469 16.652344 -11.285156 L 19.648438 -11.644531 C 19.015625 -15.609375 15.304688 -18.507812 10.726562 -18.507812 C 5.136719 -18.507812 1.117188 -14.589844 1.117188 -9 C 1.117188 -3.433594 5.136719 0.484375 10.726562 0.484375 Z M 10.726562 0.484375" transform="translate(157.268 45.8)"/>
      </g>
    </g>
  </g>
  <g fill="#2F89FC" transform="matrix(1, 0, 0, 1, 125.650375, 186.407715)">
    <g>
      <g>
        <path d="M 7.90625 0.40625 C 12.101562 0.40625 14.949219 -2.3125 14.949219 -6.457031 C 14.949219 -10.601562 12.101562 -13.320312 7.90625 -13.320312 C 3.710938 -13.320312 0.890625 -10.625 0.890625 -6.457031 C 0.890625 -2.3125 3.738281 0.40625 7.90625 0.40625 Z M 7.90625 -2.058594 C 5.492188 -2.058594 3.761719 -3.890625 3.761719 -6.457031 C 3.761719 -9.023438 5.492188 -10.855469 7.90625 -10.855469 C 10.347656 -10.855469 12.074219 -9.023438 12.074219 -6.457031 C 12.074219 -3.890625 10.347656 -2.058594 7.90625 -2.058594 Z M 7.90625 -2.058594" transform="translate(177.131 45.8)"/>
      </g>
    </g>
  </g>
  <g fill="#2F89FC" transform="matrix(1, 0, 0, 1, 125.650375, 186.407715)">
    <g>
      <g>
        <path d="M 5.261719 0 L 9.53125 0 L 14.386719 -12.914062 L 11.285156 -12.914062 L 7.5 -2.414062 L 7.296875 -2.414062 L 3.507812 -12.914062 L 0.40625 -12.914062 Z M 5.261719 0" transform="translate(192.016 45.8)"/>
      </g>
    </g>
  </g>
  <g fill="#2F89FC" transform="matrix(1, 0, 0, 1, 125.650375, 186.407715)">
    <g>
      <g>
        <path d="M 8.03125 0.40625 C 11.132812 0.40625 13.828125 -1.269531 14.539062 -3.761719 L 12 -4.167969 C 11.464844 -2.71875 9.914062 -1.679688 8.160156 -1.679688 C 5.769531 -1.679688 4.066406 -3.277344 3.863281 -5.667969 L 14.949219 -5.667969 L 14.972656 -6.457031 C 14.972656 -10.550781 12.175781 -13.320312 8.058594 -13.320312 C 3.863281 -13.320312 0.914062 -10.574219 0.914062 -6.480469 C 0.914062 -2.363281 3.839844 0.40625 8.03125 0.40625 Z M 3.839844 -7.347656 C 4.066406 -9.660156 5.695312 -11.261719 8.007812 -11.261719 C 10.246094 -11.261719 11.898438 -9.582031 12.050781 -7.347656 Z M 3.839844 -7.347656" transform="translate(205.91 45.8)"/>
      </g>
    </g>
  </g>
</svg>