<svg xmlns="http://www.w3.org/2000/svg" width="75" viewBox="0 0 75 75" height="75" version="1.0"><defs><clipPath id="a"><path d="M 5.039062 0 L 70.289062 0 L 70.289062 75 L 5.039062 75 Z M 5.039062 0"/></clipPath></defs><g clip-path="url(#a)"><path fill="#08377C" d="M 37.667969 64.148438 L 14.476562 50.824219 L 14.476562 24.183594 L 37.667969 10.859375 L 60.863281 24.183594 L 70.292969 18.765625 L 37.667969 0.0234375 L 5.042969 18.765625 L 5.042969 56.242188 L 37.667969 74.980469 L 70.292969 56.242188 L 60.863281 50.824219 L 37.667969 64.148438"/></g><path fill="#2F89FC" d="M 47.140625 21.390625 L 24.621094 21.390625 L 24.621094 45.039062 L 32.101562 34.238281 L 32.101562 29.257812 L 42.578125 29.257812 L 47.746094 38.164062 L 42.578125 47.066406 L 30.222656 47.066406 L 25.375 54.933594 L 47.140625 54.933594 L 56.875 38.164062 L 47.140625 21.390625"/></svg>